<?xml version="1.0" encoding="utf-8"?>
<!-- Generator: Adobe Illustrator 25.0.1, SVG Export Plug-In . SVG Version: 6.00 Build 0)  -->
<svg version="1.1" id="Layer_1" xmlns="http://www.w3.org/2000/svg" xmlns:xlink="http://www.w3.org/1999/xlink" x="0px" y="0px"
	 viewBox="0 0 1920 1080" style="enable-background:new 0 0 1920 1080;" xml:space="preserve">
<g>
	<g>
		<path d="M472,932.1l-40.4,137.4H399c22.2-75,44.3-149.9,66.3-224.6h1c8.6,17.7,16.8,35.5,25.2,53.2c8.4,17.7,16.7,35.5,25.2,53.2
			s16.9,35.7,25.6,54.3l75.5-160.9h1c22.1,74.8,44.3,149.8,66.4,224.8h-32.7c-13.3-45.5-26.6-91-39.8-136.5h-1
			c-22.8,48.2-45.7,96.3-69.1,145.4c-23.3-49.2-46.2-97.7-69.2-146.1L472,932.1z"/>
		<path d="M1435.7,1069.1c-10.9,0-21.8,0-32.7,0V844l179.4,164l0.8-0.4V852.7h33.1v226.9l-179.8-163.2c-0.3,0-0.5,0-0.7,0.1
			c-0.1,0.1-0.1,0.2-0.1,0.3c0,0.2-0.1,0.5,0,1C1435.7,968.3,1435.7,1018.7,1435.7,1069.1z"/>
		<path d="M149.9,935.6v-82.9h32.6v216.7h-32.6V966c-3.8-1-107.4-1.4-116.7-0.6c-0.6,11.5,0,22.9,0,34.5c0,11.5,0,22.8,0,34.1v34.5
			c-11,1.2-22.1,1.4-33.1,0.6V852.6h33.1v83H149.9z"/>
		<path d="M1137.5,852.6h32.9v216.8h-32.6V966.4c-3.7-1.1-109.8-1.5-116.8-0.4v103.5h-33.1V852.6h32.9c0,13.9,0,27.8,0,41.6
			c0,13.8,0,27.4,0,41.4h116.7V852.6z"/>
		<path d="M764.6,852.6h134.7v29.3h-101c-1.2,18.2-1.2,36.4,0,54.6h101.2v29H798.4c-1,3.9-1.3,68.7,0,74.7h101.6v29.1H764.6V852.6z"
			/>
		<path d="M1804.7,844.4l115.3,225.2h-35l-9.7-18.7c-5.7-11.1-11.5-22.1-17.1-33.3c-0.8-2.3-3-3.7-5.4-3.4c-31.8,0-63.8,0-95.9,0
			c-2.7-0.3-5.2,1.4-6,4c-8,15.9-15.9,31.8-23.9,47.8l-2.2,4.2h-33.8C1691.7,1066,1798.1,855.9,1804.7,844.4z M1804.7,912.3
			c-13.2,25.9-25.9,51-39.1,76.6h78.1L1804.7,912.3z"/>
		<path d="M315.4,1069.6h-31.8c-1-3.3-1.4-209.2,0-216.9h31.8C316,856,316.4,1060.8,315.4,1069.6z"/>
		<path d="M1271,852.6h32.3v217.1h-31.8C1270.4,1066.1,1270.2,859.1,1271,852.6z"/>
	</g>
	<g>
		<path d="M962,0.4C747-1.1,571.5,172,570,387.1c-1.4,210.5,164.8,384.1,375.2,391.8c235.2,9.4,412.3-187.1,404.6-389.4
			C1350.9,175.8,1178.7,1.6,965,0.4C964,0.4,963,0.4,962,0.4z M994.1,183.4c-1.6,17.9-17.5,31.1-35.4,29.5
			c-15.7-1.4-28.1-13.8-29.5-29.5c-1.6-17.9,11.6-33.8,29.5-35.4c17.9-1.6,33.8,11.6,35.4,29.5C994.3,179.5,994.3,181.5,994.1,183.4
			z M1261.3,504.1c-11.2,0-22.2,1.9-33.4,2.7c-2.4-0.5-4.8-1.3-6.9-2.4l-12.3,3.2c6-8.4,11.2-17.4,15.5-26.7
			c10.3-25.1-1.6-53.8-26.7-64.2c-6.3-2.6-13.2-3.9-20-3.7c-10-0.2-19.9,1.3-29.4,4.5c-12,4-23.2,10.4-35,15.2
			c-11.8,4.8-31.3,12.8-46.5,19c3.5,29.7,6.9,59.3,10.7,89.3c2.4,17.3,12.1,32.7,26.7,42.2c22.9,16.7,55,11.6,71.7-11.3
			c4.1-5.6,6.9-11.9,8.5-18.6c0.8-4.2,1.3-8.3,1.6-12.6l30.2,9.6l28.1,10.7c-26.7,60.4-113.8,133.6-213.8,154.5
			C910.9,740,787.8,697.2,709.5,604.1l20.6-44.4l4.5,15.2l0,0c6.3,43.4,41.4,76.9,85,81.2c49-0.5,91.9-33.1,105.6-80.2
			c4.3-21.4,7.5-43,9.6-64.7c3.5-26.7,5.6-51.6,9.6-77.2c1.7-16.1,8-31.3,18.2-43.8c4,7.3,7.5,14.9,10.4,22.7
			c4.1,14.8,7.2,29.7,9.4,44.9c3.7,29.4,6.4,59.1,9.6,88.7c1.4,22.3,8.7,43.8,21.4,62.3c17.4,25.9,45,43.1,75.9,47.3
			c45.7,2.7,87-26.8,99.4-70.8c0.3-3.7,0.3-7.5,0-11.2c-3.2,4.3-6,9-8.3,13.9c-16.4,33.8-54.6,51.1-90.9,41.2
			c-33.7-9.5-59.2-37-66-71.4c-4.6-25-7.9-50.3-9.9-75.6c-0.5-26.8-9.4-52.8-25.4-74.3c0,0,0-1.9,0-4c32.4,3.3,65-4.1,92.7-21.1
			l48.4-20.3c16.8-7.3,35.5-9.2,53.4-5.6c72.2,14.4,90.1,78,57.2,127.2c-2.9,4.5-6.7,9.1-9.9,13.6c15.6-8.3,27.5-22.3,33.1-39
			c18.6-37.7,8.4-83.2-24.6-109.3c-29.9-24.5-70.3-31.8-106.9-19.2c-16.3,5.1-31.5,12.6-47.3,19c-30.5,12.6-60.7,24.9-91.4,36.9
			c-10.8,3.4-22.2,4.3-33.4,2.4l0,0h-9.9c-19.7-0.7-39-5.7-56.7-14.4c-32.6-13.9-64.9-28.9-97.5-42.5c-22.8-9.3-48.1-10.7-71.9-4
			c-50.4,9.7-83.5,58.4-73.8,108.9c2.2,11.7,6.7,22.8,13.1,32.8c5.4,12.1,14.9,22,26.7,28.1c-1.8-3.2-4-6.1-6.4-8.8
			c-27.8-32.9-23.6-82.2,9.3-110c5.3-4.5,11.1-8.2,17.4-11.1c24.3-12.8,52.9-14.4,78.6-4.5c25.1,10.2,50,20.8,74.6,31.8
			c19.6,9.8,41.6,13.7,63.3,11.5c2.8-0.2,5.7-0.2,8.6,0c-14.2,15.6-23,35.4-25.1,56.4c-2.9,24.6-5.9,49.4-8.6,74.3
			c-1.4,26.3-12.4,51.1-31,69.7c-29.9,32.7-80.6,35-113.3,5.1c-8.9-8.1-15.9-18.2-20.4-29.4c-1.3-2.6-2.7-5.1-4.3-7.5v-28.3h2.4
			c1.5,2.2,2.7,4.5,3.7,6.9c2.9,10.6,9.2,20,17.9,26.7c21.9,17.7,54,14.4,71.8-7.5c3.6-4.5,6.4-9.5,8.4-14.9
			c4.7-14.6,7.7-29.6,9.1-44.9c1.6-10.4,1.9-21.1,3.2-31.5c1.3-10.4,3.5-19.8,5.3-29.4c-29.4-12.6-58.3-26.7-87.7-37.1
			c-20.5-7.8-43.6-3.2-59.6,11.8c-18.6,19.6-19.6,50-2.4,70.8c4,3.9,8.3,7.5,12.8,10.7c-7.5,6.7-13.1,12.3-19.2,17.4
			s-18.7,15.5-29.7,24.9c-49.2-88.7-54.7-195.1-15-288.3c43-103.9,136.5-178.4,247.5-197c8,11.2,16.3,22.7,24.3,34.5
			c1.6,2.7,3.7,5.9-1.9,6.9l16.3,10.4c-4,0-5.6,1.9-6.7,1.3c-23.9-7.7-50,1.7-63.6,22.7c-10.5,24-4.8,52,14.2,70
			c4,3.5,8.3,6.7,12.6,9.9c10.7,7.7,21.9,15,32.3,23s20.6,16.8,29.9,24.6l72.7-53.4c11.6-8.7,19.5-21.5,22.2-35.8
			c7.4-26.8-8.4-54.4-35.1-61.8c-10.2-2.8-21-2.3-30.9,1.4l-9.6,3.2c-3.7-20.3-7.5-40.4-11.8-62.8c15.2,0,28.3,1.6,41.2,3.5
			c149.2,20.7,265.7,139.1,284.1,288.6c5.7,47.1,1.2,94.9-13.4,140c-1.2,7.5-7.9,12.9-15.5,12.6L1261.3,504.1z M1173.7,492.6
			c0,17.8-14,32.4-31.8,33.1c-17.9,0-32.5-14.4-32.6-32.3c1.6-17.8,17.4-30.9,35.1-29.3c15.5,1.4,27.8,13.7,29.3,29.3V492.6z
			 M750.4,494c0.4-17.7,14.4-32.2,32.1-33.1c17.9-2,34,11,35.9,28.9c2,17.9-11,34-28.9,35.9c-1.9,0.2-3.8,0.2-5.7,0.1
			C766,525.5,751.5,511.7,750.4,494z"/>
		<path d="M1037.6,317.3c22.8-15.6,44.6-32.4,65.5-50.5c28.1-26,40.1-65,31.5-102.4c-8.8-41.6-45.4-71.5-87.9-71.9
			c-13.7-2.2-27.7,0.5-39.6,7.7c12.6,0,25.2,0.8,37.7,2.4c31.3,4.1,56,28.4,60.7,59.6c7.3,33.1-4.2,67.5-29.9,89.5
			c-20,17.4-42,32.6-63.3,48.1c-21.8,13.6-38.8,33.6-48.9,57.2c0,0-1.3,0-2.1,0c-13.2-28.7-35.2-52.5-62.8-67.9
			c-15.8-12-31.5-23.5-47-35.5c-18.5-14.7-30.6-35.9-33.9-59.3c-10.2-40.3,14.1-81.3,54.5-91.6c3.6-0.9,7.3-1.6,11-1.9
			c12.5-1.2,25.1-1.2,37.7,0c-13.7-9.4-30.7-13-47-9.9c-50.1,2-89.2,44.2-87.2,94.3c0.1,1.9,0.2,3.7,0.4,5.6
			c2,35,19.7,67.3,48.1,87.9c26.7,19,51.8,36.9,77.2,56.4c13.5,11.1,26.3,23,38.5,35.5c4.3,4.9,8,10.3,11,16
			c5.6-7.7,9.4-13.9,13.9-19.2C994.2,348.6,1015.1,331.7,1037.6,317.3z"/>
		<path d="M961.5,388.9L961.5,388.9L961.5,388.9z"/>
		<path d="M688.6,471c-6.9-25.7,6.2-52.7,30.7-63.1c16.5-8.6,35.8-10.1,53.4-4c19,7.2,37.4,15.5,55.9,23.2
			c15.6,7.9,33.1,11.4,50.5,10.2c-10.1,14.6-15.9,31.7-16.8,49.4c-2.7,20.6-4,41.4-8.3,61.7c-5,24.1-23.2,43.4-47,49.7
			c-22.1,7.2-46.3-0.7-59.9-19.5c-1.8-1.6-3.6-3-5.6-4.3c12.3,36.2,51.6,55.5,87.8,43.2c10-3.4,19.1-9,26.6-16.5
			c19-19,29.8-44.5,30.2-71.4c0.9-35,5.8-69.8,14.7-103.7c-15-5.3-29.7-9.9-43.8-16c-23-9.6-45.4-20-68.1-30.5
			c-16.7-7.8-35.5-9.9-53.4-5.9c-27.7,3.5-50.4,23.7-57.2,50.8c-5.9,21.8-0.7,45.1,13.9,62.3C691.4,481.4,690.2,476.1,688.6,471z"/>
		<path d="M1234.6,469.1c0,4.3-1.9,8.8-2.9,14.7c24-28.4,20.5-70.9-7.8-94.9c-0.8-0.7-1.7-1.4-2.6-2.1
			c-24.2-18.4-56.5-22.3-84.4-10.2c-37.3,18.4-75.9,34.1-115.4,46.8c2.6,8.8,4.7,17.7,6.1,26.7c3.5,28.6,6.7,56.9,9.4,85.5
			c1.1,30.3,17.1,58.1,42.8,74.3c18.3,12.6,42,14.4,62,4.5c17.8-7.1,31.4-21.8,37.1-40.1c-4.4,3.7-8.6,7.7-12.6,12
			c-8.4,7.4-19,12-30.2,13.1c-34.9,0.4-64.6-25.3-69.2-59.9c-1.6-12-2.4-24.3-4-36.3c-0.5-20.2-5.5-40-14.7-58c-1.7-2.9-3-5.9-4-9.1
			c18.4,1.7,37-2,53.4-10.4c17.1-7.5,34.2-14.4,51.3-21.4c17.4-6.4,36.7-5.5,53.4,2.4C1227.1,416.6,1240.8,443.2,1234.6,469.1z"/>
		<path d="M1064.9,150c6.6,24.8-0.8,51.3-19.5,68.9c-6.2,5.7-12.7,11-19.5,16c-23.5,18.2-51.6,31.5-64.9,64.4
			c-5.5-16.4-16.2-30.5-30.5-40.4l-44.6-33.1c-12.5-8.7-21.9-21.1-26.7-35.5c-12.7-28.8,0.4-62.4,29.2-75c3.9-1.7,8-3,12.2-3.8
			c1.8-0.4,3.5-1.2,5.1-2.1v-3.2c-7,0.4-13.9,1.2-20.8,2.4c-32.5,5.2-56.1,33.6-55.3,66.5c0.2,27.6,13.5,53.5,35.8,69.7
			c34.5,22.2,66.8,47.6,96.5,75.9c22.3-22.7,47.2-42.8,74-59.9c13.8-8.9,26.4-19.4,37.7-31.3c20.4-21.9,26.3-53.5,15.2-81.2
			c-11.2-25.6-36.4-42.2-64.4-42.2c-2.8,0.3-5.5,1.1-8,2.4c8,2.8,15.9,6,23.5,9.6C1052.6,124.3,1061.9,136.1,1064.9,150z"/>
	</g>
</g>
</svg>
